<?xml version="1.0" standalone="no"?>
<!DOCTYPE svg PUBLIC "-//W3C//DTD SVG 20010904//EN"
 "http://www.w3.org/TR/2001/REC-SVG-20010904/DTD/svg10.dtd">
<svg version="1.0" xmlns="http://www.w3.org/2000/svg"
 width="400.000000pt" height="400.000000pt" viewBox="0 0 400.000000 400.000000"
 preserveAspectRatio="xMidYMid meet">
<metadata>
Created by potrace 1.11, written by Peter Selinger 2001-2013
</metadata>
<g transform="translate(0.000000,400.000000) scale(0.100000,-0.100000)"
fill="#000000" stroke="none">
<path d="M1953 3274 c-30 -18 -47 -22 -80 -17 -36 5 -62 -3 -188 -57 -81 -35
-141 -66 -134 -70 6 -4 -6 -10 -28 -14 -58 -10 -94 -26 -140 -63 -37 -30 -76
-96 -78 -131 0 -7 -20 -26 -45 -43 -25 -17 -36 -28 -25 -24 44 15 50 16 32 3
-10 -7 -26 -19 -35 -26 -15 -12 -15 -13 5 -9 20 5 22 2 18 -26 -11 -78 -13
-167 -3 -167 7 0 7 -4 1 -12 -16 -21 -33 -102 -26 -127 4 -17 3 -22 -5 -17 -8
5 -12 -1 -13 -16 -1 -23 -1 -23 -9 2 -13 40 -11 2 1 -41 7 -21 16 -36 20 -33
13 7 22 -42 15 -79 -4 -20 2 -64 14 -112 19 -73 19 -80 4 -95 -15 -14 -16 -13
-9 9 5 16 4 21 -4 17 -6 -4 -11 -34 -10 -69 l1 -62 17 55 c15 49 20 55 42 52
13 -2 29 -10 35 -18 6 -7 19 -85 29 -171 10 -87 24 -171 32 -188 l14 -30 -7
40 c-4 22 -8 67 -9 100 -1 33 -4 69 -8 80 -3 11 -9 43 -12 70 l-5 50 33 -36
c67 -73 139 -99 275 -99 94 0 128 13 166 63 24 32 76 160 76 189 0 8 9 23 20
33 15 14 29 16 64 11 l44 -7 1 -57 c0 -49 38 -200 40 -164 1 9 10 7 31 -8 86
-61 265 -81 345 -39 55 29 119 93 140 140 10 21 22 39 27 39 5 0 6 4 3 10 -11
17 11 76 39 103 26 26 26 26 26 4 0 -20 2 -20 19 7 30 46 49 52 77 25 13 -12
24 -33 24 -45 0 -13 5 -26 12 -30 8 -5 9 -2 5 10 -4 10 -7 26 -7 36 0 29 -41
62 -67 55 -18 -4 -23 -1 -23 15 0 11 7 31 15 44 38 58 60 167 60 303 0 72 3
129 8 126 16 -10 5 46 -14 68 -13 16 -19 32 -15 49 6 32 -27 103 -57 118 -12
7 -47 21 -77 31 l-55 19 40 5 c35 3 33 4 -17 7 -32 2 -64 3 -70 4 -7 1 -12 -5
-10 -12 6 -31 -39 10 -86 78 -17 25 -40 55 -50 67 -24 27 -111 50 -215 56 -58
4 -81 9 -90 22 -21 27 -98 27 -144 -1z m-468 -255 c-4 -13 -2 -19 9 -19 23 0
20 -10 -11 -42 -17 -18 -37 -28 -55 -28 -32 0 -30 12 14 78 29 42 55 49 43 11z
m59 -119 c6 0 17 5 24 12 9 9 13 7 18 -5 3 -9 4 -23 1 -31 -4 -11 1 -13 23
-11 27 4 29 1 27 -25 -1 -15 -6 -26 -11 -22 -5 3 -6 -2 -3 -12 4 -10 7 -22 7
-28 0 -7 5 -7 13 1 18 15 30 2 13 -14 -23 -24 -66 -23 -66 1 0 13 -3 14 -14 5
-12 -10 -17 -8 -26 9 -6 11 -22 25 -36 30 -28 11 -30 27 -8 58 15 22 15 23
-10 16 -33 -8 -33 4 2 37 l27 26 3 -23 c2 -13 9 -24 16 -24z m616 -105 c46
-16 70 -16 83 0 5 6 5 -1 2 -14 -4 -13 -3 -21 2 -18 17 10 63 16 63 8 0 -5 18
-11 40 -15 25 -4 43 -13 47 -24 4 -9 37 -51 73 -92 71 -80 88 -109 69 -120 -8
-5 -6 -17 6 -40 9 -18 24 -56 32 -84 8 -28 21 -58 28 -66 7 -8 17 -27 20 -42
l7 -28 -48 15 c-27 8 -75 23 -106 34 -45 15 -74 19 -135 15 -102 -6 -201 -27
-251 -53 -57 -29 -122 -27 -228 8 -148 49 -314 64 -393 37 -61 -22 -135 -25
-138 -6 -3 11 10 19 41 28 28 7 68 32 108 65 65 55 106 82 114 74 3 -2 -9 -16
-26 -31 -17 -14 -28 -26 -23 -26 5 0 24 13 44 29 20 17 60 43 90 59 66 36 189
142 184 159 -6 17 80 88 140 118 58 28 96 31 155 10z m-440 -12 c0 -9 7 -24
16 -34 12 -13 13 -22 5 -37 -9 -17 -7 -19 15 -19 40 0 41 -13 4 -44 -42 -35
-54 -37 -48 -4 4 20 2 23 -12 15 -21 -11 -45 4 -37 24 5 11 1 16 -13 16 -30 0
-24 20 17 62 41 42 53 47 53 21z m-434 -90 c-10 -10 -19 5 -10 18 6 11 8 11
12 0 2 -7 1 -15 -2 -18z m489 -458 c34 -19 47 -35 56 -64 6 -22 8 -48 4 -58
-4 -10 -9 -24 -11 -31 -6 -29 -43 -79 -75 -100 -31 -22 -42 -23 -124 -20 -118
5 -149 22 -181 94 -25 57 -31 122 -14 154 23 43 90 61 213 55 72 -3 96 -8 132
-30z m707 7 c41 -24 61 -74 53 -129 -5 -35 -16 -55 -50 -88 -58 -58 -105 -71
-207 -56 -124 17 -150 46 -164 180 l-6 69 33 18 c24 12 69 19 149 24 127 7
152 5 192 -18z"/>
<path d="M1663 2233 c9 -2 23 -2 30 0 6 3 -1 5 -18 5 -16 0 -22 -2 -12 -5z"/>
<path d="M1679 2184 c-7 -8 -21 -13 -31 -11 -23 6 -23 -5 0 -33 31 -39 84 -4
66 44 -8 20 -18 20 -35 0z"/>
<path d="M1601 2164 c0 -11 3 -14 6 -6 3 7 2 16 -1 19 -3 4 -6 -2 -5 -13z"/>
<path d="M1719 2103 c-13 -16 -12 -17 4 -4 9 7 17 15 17 17 0 8 -8 3 -21 -13z"/>
<path d="M1653 2033 c9 -2 23 -2 30 0 6 3 -1 5 -18 5 -16 0 -22 -2 -12 -5z"/>
<path d="M2217 2224 c30 -5 32 -8 26 -35 -7 -35 19 -69 52 -69 31 0 48 24 43
61 -4 28 -3 30 21 25 22 -5 23 -5 8 5 -11 6 -56 12 -100 14 -45 2 -68 1 -50
-1z m93 -15 c0 -14 -30 -38 -47 -39 -18 0 -16 15 3 34 18 19 44 21 44 5z"/>
<path d="M2400 2054 l-25 -15 25 7 c14 3 29 10 35 15 15 14 -7 10 -35 -7z"/>
<path d="M1201 2504 c0 -11 3 -14 6 -6 3 7 2 16 -1 19 -3 4 -6 -2 -5 -13z"/>
<path d="M1143 2135 c0 -33 2 -45 4 -27 2 18 2 45 0 60 -2 15 -4 0 -4 -33z"/>
<path d="M2695 2148 l-16 -33 20 25 c20 24 26 40 16 40 -2 0 -12 -15 -20 -32z"/>
<path d="M2714 2039 c-1 -57 0 -60 12 -38 17 31 17 60 2 82 -11 15 -13 7 -14
-44z"/>
<path d="M2812 2045 c0 -16 2 -22 5 -12 2 9 2 23 0 30 -3 6 -5 -1 -5 -18z"/>
<path d="M1151 2044 c0 -11 3 -14 6 -6 3 7 2 16 -1 19 -3 4 -6 -2 -5 -13z"/>
<path d="M1161 2000 c0 -8 6 -28 14 -45 17 -39 18 -21 0 25 -7 19 -14 28 -14
20z"/>
<path d="M2641 1974 c0 -11 3 -14 6 -6 3 7 2 16 -1 19 -3 4 -6 -2 -5 -13z"/>
<path d="M2801 1964 c0 -11 3 -14 6 -6 3 7 2 16 -1 19 -3 4 -6 -2 -5 -13z"/>
<path d="M1200 1900 c6 -11 13 -20 16 -20 2 0 0 9 -6 20 -6 11 -13 20 -16 20
-2 0 0 -9 6 -20z"/>
<path d="M2677 1887 l-18 -32 21 21 c13 12 21 27 19 33 -2 6 -12 -4 -22 -22z"/>
<path d="M2766 1863 c-6 -14 -5 -15 5 -6 7 7 10 15 7 18 -3 3 -9 -2 -12 -12z"/>
<path d="M1230 1851 c5 -11 15 -23 21 -27 6 -3 3 5 -6 20 -20 30 -30 35 -15 7z"/>
<path d="M2613 1813 c-7 -32 -15 -71 -18 -88 l-6 -30 15 32 c13 29 33 143 24
143 -2 0 -9 -26 -15 -57z"/>
<path d="M1317 1849 c7 -7 15 -10 18 -7 3 3 -2 9 -12 12 -14 6 -15 5 -6 -5z"/>
<path d="M1831 1828 c-12 -33 2 -62 35 -71 16 -5 43 -13 59 -19 17 -5 37 -12
46 -15 9 -2 28 7 43 21 23 21 32 23 54 15 14 -5 31 -7 39 -5 20 8 35 54 23 74
-7 13 -9 8 -10 -22 l0 -39 -45 5 c-35 4 -48 1 -61 -13 -21 -23 -52 -24 -83 -2
-13 9 -38 19 -55 22 -28 6 -31 10 -28 39 4 37 -5 42 -17 10z"/>
<path d="M2739 1823 c-13 -16 -12 -17 4 -4 16 13 21 21 13 21 -2 0 -10 -8 -17
-17z"/>
<path d="M1260 1806 c0 -3 9 -10 20 -16 11 -6 20 -8 20 -6 0 3 -9 10 -20 16
-11 6 -20 8 -20 6z"/>
<path d="M2709 1783 c-13 -16 -12 -17 4 -4 9 7 17 15 17 17 0 8 -8 3 -21 -13z"/>
<path d="M2576 1677 c3 -10 9 -15 12 -12 3 3 0 11 -7 18 -10 9 -11 8 -5 -6z"/>
<path d="M1410 1664 c0 -6 7 -19 16 -30 14 -18 14 -18 3 6 -14 31 -19 36 -19
24z"/>
<path d="M1744 1612 c8 -13 70 -32 105 -32 36 0 18 11 -31 20 -24 5 -52 12
-62 16 -13 5 -17 4 -12 -4z"/>
<path d="M2218 1614 c-9 -8 -123 -25 -233 -33 l-100 -8 85 -1 c102 -2 211 13
248 33 15 8 22 14 16 15 -6 0 -13 -3 -16 -6z"/>
<path d="M1456 1582 c10 -18 28 -41 38 -50 12 -10 8 0 -9 23 -40 56 -51 66
-29 27z"/>
<path d="M2536 1595 c-9 -26 -7 -32 5 -12 6 10 9 21 6 23 -2 3 -7 -2 -11 -11z"/>
<path d="M1937 1488 c16 -8 36 -8 65 -1 l43 11 -65 0 c-53 1 -61 -1 -43 -10z"/>
<path d="M2464 1468 l-19 -23 23 19 c21 18 27 26 19 26 -2 0 -12 -10 -23 -22z"/>
<path d="M2391 1409 c-50 -45 -153 -97 -255 -128 -76 -23 -203 -28 -271 -10
-22 6 -53 13 -70 15 -29 4 -29 4 5 -9 117 -47 222 -50 345 -12 50 16 81 21 83
15 2 -6 22 0 46 14 39 23 43 23 76 9 19 -8 73 -28 120 -44 124 -43 237 -99
255 -125 34 -52 56 -144 64 -266 5 -68 15 -141 24 -163 78 -202 81 -215 86
-337 1 -25 27 -12 41 21 17 42 -10 173 -68 331 -13 36 -23 95 -27 173 -7 106
-11 125 -41 184 -29 58 -43 73 -104 115 -65 44 -154 85 -235 108 -51 14 -125
42 -125 47 0 2 24 26 53 53 28 27 50 49 47 49 -3 0 -25 -18 -49 -40z"/>
<path d="M1655 1360 c10 -11 20 -20 23 -20 3 0 -3 9 -13 20 -10 11 -20 20 -23
20 -3 0 3 -9 13 -20z"/>
<path d="M1519 1314 c-96 -21 -163 -55 -259 -134 -88 -73 -103 -92 -115 -150
-4 -19 -26 -102 -50 -185 -61 -212 -72 -323 -51 -553 9 -97 17 -203 19 -234 2
-52 3 -55 20 -44 28 22 40 114 26 204 -20 117 -15 328 10 447 11 55 22 114 25
130 7 38 18 72 50 159 14 38 26 81 26 96 0 33 33 65 125 120 39 23 74 49 78
56 13 23 60 42 118 50 l54 7 -46 -45 c-47 -47 -89 -119 -89 -154 1 -10 7 -2
15 20 7 21 31 57 52 79 39 41 172 133 186 129 4 -1 7 3 7 9 0 7 -8 9 -22 4
-28 -9 -45 -9 -83 -2 -16 3 -60 -1 -96 -9z"/>
<path d="M2224 1245 c-5 -12 0 -24 15 -36 l23 -19 -32 -40 c-39 -50 -117 -119
-150 -133 -25 -11 -75 -57 -62 -57 4 0 25 13 48 28 23 15 60 40 83 55 23 15
54 48 69 72 32 54 53 64 150 72 81 6 89 -4 19 -23 -23 -6 -51 -15 -61 -19 -15
-7 -17 -5 -11 6 19 29 -59 -43 -83 -79 -68 -99 -157 -324 -150 -378 l4 -29 12
30 c7 17 16 38 20 48 4 10 7 -103 7 -250 0 -217 3 -286 18 -363 24 -124 26
-130 43 -130 10 0 13 6 10 18 -20 63 -37 214 -42 377 -11 308 20 410 167 557
60 59 95 85 158 115 78 37 98 53 65 53 -9 0 -27 9 -41 20 -27 21 -46 19 -25
-2 21 -21 13 -36 -23 -48 -41 -14 -138 -83 -195 -140 -22 -22 -40 -39 -40 -37
0 1 13 35 29 76 31 80 60 110 150 153 25 12 60 34 78 49 42 36 55 32 -199 65
-40 6 -49 4 -54 -11z m8 -262 c-11 -21 -25 -55 -31 -75 -12 -35 -70 -149 -71
-137 0 19 45 131 75 185 39 69 57 87 27 27z"/>
<path d="M1668 1243 c18 -7 15 -20 -8 -26 -11 -3 -20 -9 -20 -14 0 -15 110
-93 131 -93 12 0 20 -9 24 -27 3 -16 12 -50 20 -76 l14 -49 -53 50 c-29 28
-78 67 -109 86 -31 20 -67 52 -81 72 l-24 36 -22 -42 c-34 -66 -24 -82 81
-136 92 -47 160 -111 201 -187 12 -23 17 -27 18 -13 0 10 -15 39 -33 65 -51
71 -53 75 -30 62 29 -15 79 -75 103 -121 26 -51 36 -241 32 -583 -3 -236 -2
-249 15 -245 16 3 18 16 18 143 0 77 7 171 14 209 16 81 10 199 -14 266 -9 25
-20 81 -26 125 -10 86 -48 217 -60 210 -8 -6 -22 25 -14 33 3 3 5 -1 5 -9 0
-10 2 -11 8 -2 6 10 20 8 60 -7 29 -11 58 -20 65 -20 25 0 14 31 -16 46 -16 9
-26 11 -23 5 10 -16 -54 -2 -84 18 -27 19 -67 86 -72 123 -2 17 -10 24 -33 26
-45 5 -51 19 -11 26 21 4 40 15 47 27 14 27 9 31 -32 19 -44 -13 -72 -13 -64
0 3 6 -4 10 -17 9 -13 0 -17 -3 -10 -6z m-40 -152 c17 -11 34 -21 39 -21 4 0
28 -18 53 -39 l45 -40 -81 29 c-85 29 -144 65 -144 86 0 7 5 25 10 40 l11 28
18 -31 c11 -17 33 -40 49 -52z"/>
<path d="M1293 735 c0 -22 2 -30 4 -17 2 12 2 30 0 40 -3 9 -5 -1 -4 -23z"/>
<path d="M1332 750 c0 -14 2 -19 5 -12 2 6 2 18 0 25 -3 6 -5 1 -5 -13z"/>
<path d="M1324 590 c0 -63 1 -89 3 -57 2 31 2 83 0 115 -2 31 -3 5 -3 -58z"/>
<path d="M1313 385 c0 -27 2 -38 4 -22 2 15 2 37 0 50 -2 12 -4 0 -4 -28z"/>
</g>
</svg>
